<svg width="44" height="44" viewBox="0 0 44 44" fill="none" xmlns="http://www.w3.org/2000/svg">
<circle cx="21.5" cy="22.5" r="18.5" fill="#F0F2F5"/>
<g clip-path="url(#clip0_15_17)">
<path d="M29.159 20.742C28.6535 20.1094 28.427 19.4654 28.7338 18.7227C29.0535 17.9485 29.8749 17.5282 30.6985 17.7133C31.4288 17.8773 32.0084 18.6318 31.9998 19.4071C31.9906 20.2295 31.4166 20.9607 30.6172 21.0734C30.2437 21.126 30.1022 21.2597 30.0252 21.6388C29.6712 23.3762 29.2748 25.1045 28.9004 26.8377C28.7168 27.6884 28.5249 27.8689 27.6907 27.8699C23.9814 27.8738 20.2724 27.8732 16.5631 27.871C15.7125 27.8704 15.5232 27.6975 15.3267 26.7938C14.9458 25.0419 14.5574 23.2918 14.1864 21.5379C14.1266 21.2546 14.0626 21.0948 13.7202 21.081C12.763 21.042 12.1961 20.5484 12.0313 19.6859C11.8894 18.9438 12.2394 18.2016 12.8996 17.8443C13.5547 17.4897 14.4181 17.6413 14.9304 18.201C15.4838 18.8057 15.5296 19.5748 15.0608 20.3803C15.0314 20.4306 15.0078 20.4846 14.941 20.6171C15.9998 21.501 17.0713 22.3955 18.2166 23.3514C19.3481 21.3587 20.4506 19.4177 21.5798 17.4292C20.9203 17.0295 20.3866 16.51 20.4737 15.7007C20.5187 15.2823 20.727 14.8147 21.0057 14.5029C21.654 13.7774 22.8023 13.8617 23.4336 14.6007C24.1735 15.4667 23.9668 16.4692 22.8047 17.423C23.8898 19.3398 24.9807 21.2668 26.1152 23.2713C27.1345 22.4244 28.1179 21.6074 29.1592 20.7422L29.159 20.742Z" fill="black"/>
<path d="M22.0616 30.4698C20.158 30.4698 18.2543 30.4714 16.3507 30.4688C15.6399 30.4677 15.5487 30.3689 15.5469 29.6395C15.5451 28.8736 15.6509 28.7474 16.3623 28.7468C20.2084 28.7433 24.0547 28.7433 27.9009 28.7476C28.566 28.7482 28.6732 28.8817 28.6726 29.6203C28.672 30.3656 28.5838 30.4675 27.8893 30.4688C25.9468 30.4722 24.0041 30.47 22.0616 30.47V30.4698Z" fill="black"/>
</g>
<defs>
<clipPath id="clip0_15_17">
<rect width="20" height="16.4706" fill="white" transform="translate(12 14)"/>
</clipPath>
</defs>
</svg>
