<svg width="44" height="44" viewBox="0 0 44 44" fill="none" xmlns="http://www.w3.org/2000/svg">
<g clip-path="url(#clip0_29_2)">
<path d="M18.1255 21.9953C18.1981 22.0594 18.2505 22.1008 18.297 22.1476C21.2821 25.1328 24.2672 28.1174 27.252 31.1015C27.4114 31.2609 27.5345 31.4246 27.4548 31.6676C27.4335 31.7388 27.3955 31.8039 27.3438 31.8573C27.2921 31.9107 27.2284 31.9509 27.1579 31.9745C27.0874 31.9981 27.0123 32.0044 26.9389 31.9928C26.8654 31.9813 26.7959 31.9523 26.736 31.9082C26.6829 31.8686 26.6332 31.8246 26.5876 31.7765C23.46 28.6515 20.3326 25.5275 17.2056 22.4043C16.9321 22.1308 16.9321 21.8707 17.2056 21.5949C20.3519 18.4535 23.4978 15.3116 26.6431 12.1691C26.8556 11.957 27.1255 11.9437 27.3224 12.1324C27.5282 12.3277 27.5286 12.6062 27.3224 12.8261C27.2833 12.8672 27.2442 12.9062 27.2052 12.9457C24.2205 15.9314 21.2358 18.9168 18.2509 21.9019C18.2111 21.9356 18.1692 21.9668 18.1255 21.9953V21.9953Z" fill="white"/>
</g>
<defs>
<clipPath id="clip0_29_2">
<rect width="10.4797" height="20" fill="white" transform="translate(17 12)"/>
</clipPath>
</defs>
</svg>
