<svg width="48" height="48" viewBox="0 0 48 48" fill="none" xmlns="http://www.w3.org/2000/svg">
<g clip-path="url(#clip0_4_40)">
<path d="M18.1255 23.9953C18.1981 24.0594 18.2505 24.1008 18.297 24.1477C21.2821 27.1328 24.2672 30.1175 27.252 33.1016C27.4114 33.2609 27.5345 33.4246 27.4548 33.6676C27.4335 33.7388 27.3955 33.8039 27.3438 33.8573C27.2921 33.9107 27.2284 33.9509 27.1579 33.9745C27.0874 33.9981 27.0123 34.0044 26.9389 33.9929C26.8654 33.9813 26.7959 33.9523 26.736 33.9082C26.6829 33.8687 26.6332 33.8246 26.5876 33.7766C23.46 30.6516 20.3326 27.5275 17.2056 24.4043C16.9321 24.1309 16.9321 23.8707 17.2056 23.5949C20.3519 20.4535 23.4978 17.3116 26.6431 14.1691C26.8556 13.957 27.1255 13.9438 27.3224 14.1324C27.5282 14.3277 27.5286 14.6063 27.3224 14.8262C27.2833 14.8672 27.2442 14.9063 27.2052 14.9457C24.2205 17.9314 21.2358 20.9168 18.2509 23.902C18.2111 23.9357 18.1692 23.9669 18.1255 23.9953V23.9953Z" fill="#040921"/>
</g>
<defs>
<clipPath id="clip0_4_40">
<rect width="10.4797" height="20" fill="white" transform="translate(17 14)"/>
</clipPath>
</defs>
</svg>
