<svg width="44" height="44" viewBox="0 0 44 44" fill="none" xmlns="http://www.w3.org/2000/svg">
<circle cx="21.5" cy="21.5" r="18.5" fill="#F0F2F5"/>
<path d="M21.3933 17.7978C19.1667 17.7978 16.9401 17.7988 14.7136 17.7973C13.887 17.7967 13.2227 17.3592 13.042 16.7041C12.8079 15.8556 13.5824 15.0207 14.6274 15.0045C15.189 14.9958 15.7509 15.0024 16.3127 15.0024C20.2349 15.0024 24.1571 15.002 28.0795 15.0026C28.8676 15.0027 29.516 15.3974 29.7297 16.0025C30.0454 16.8962 29.2591 17.7862 28.1348 17.796C27.2432 17.8038 26.3515 17.7977 25.4599 17.7978C24.1043 17.7978 22.7488 17.7978 21.3933 17.7978Z" fill="#121617"/>
<path d="M21.4076 23.3994C19.16 23.3993 16.9124 23.4014 14.6648 23.3983C13.7304 23.3971 12.9884 22.76 13.0001 21.9812C13.0115 21.2268 13.7503 20.6022 14.6502 20.6017C19.1506 20.5993 23.6508 20.5996 28.1512 20.6016C29.0038 20.6019 29.7348 21.1768 29.7921 21.8783C29.8534 22.628 29.2444 23.282 28.3816 23.3878C28.2651 23.4021 28.1451 23.3991 28.0267 23.3991C25.8203 23.3998 23.614 23.3996 21.4076 23.3994Z" fill="#121617"/>
<path d="M21.3943 28.9997C19.1728 28.9997 16.9514 29.0006 14.7301 28.9993C13.9182 28.9988 13.2596 28.5903 13.0596 27.969C12.7709 27.0721 13.5657 26.2028 14.6845 26.2015C17.21 26.1987 19.7355 26.2006 22.2609 26.2006C24.1988 26.2006 26.1368 26.2 28.0747 26.2009C29.096 26.2013 29.8374 26.8488 29.7919 27.6971C29.7565 28.3559 29.0767 28.9426 28.2901 28.9918C28.1875 28.9982 28.0841 28.9995 27.9812 28.9995C25.7856 28.9999 23.59 28.9998 21.3943 28.9997Z" fill="#121617"/>
</svg>
